<svg width="212" height="165" viewBox="0 0 212 165" fill="none" xmlns="http://www.w3.org/2000/svg">
<path d="M42.1452 125.185L41.9635 124.839L41.5946 124.707C6.98314 112.395 -4.47873 81.824 3.3515 54.2981C11.1865 26.7552 38.3977 2.14944 81.4799 2.14944C90.9346 2.14944 100.42 1.84806 109.674 1.55401C116.479 1.3378 123.159 1.12555 129.61 1.03998C144.912 0.83704 159.07 1.3399 171.151 4.12393C183.218 6.90461 193.132 11.9422 200.045 20.7512C206.962 29.5651 210.98 42.2882 210.98 60.6495C210.98 92.6369 191.756 111.726 168.53 122.873C145.267 134.037 118.124 137.149 102.759 137.149C86.1562 137.149 76.4498 141.416 70.6442 146.707C64.8501 151.988 63.0861 158.166 62.1183 161.63L62.0992 161.699C61.9052 162.393 61.7546 162.932 61.6149 163.336C61.2668 162.843 60.81 162.055 60.1936 160.886C59.3094 159.21 58.148 156.85 56.5751 153.654C55.8532 152.188 55.0446 150.545 54.1363 148.711C51.2557 142.896 47.3888 135.194 42.1452 125.185Z" stroke="#3DC2DF" stroke-width="2"/>
</svg>
