<svg width="19" height="820" viewBox="0 0 19 820" fill="none" xmlns="http://www.w3.org/2000/svg">
<g clip-path="url(#clip0_36_5418)">
<path d="M0.333332 801.146L9.66667 807.812L19 801.146L19 804.412L9.66667 811.079L0.333332 804.412L0.333332 801.146ZM0.333332 809.079L9.66667 815.746L19 809.079L19 812.346L9.66667 819.012L0.333332 812.346L0.333332 809.079Z" fill="#FF9A62"/>
<path d="M0.333332 782.746L9.66667 789.412L19 782.746L19 786.012L9.66667 792.679L0.333332 786.012L0.333332 782.746ZM0.333332 790.679L9.66667 797.346L19 790.679L19 793.946L9.66667 800.612L0.333332 793.946L0.333332 790.679Z" fill="#FF9A62"/>
</g>
<defs>
<clipPath id="clip0_36_5418">
<rect width="18.6667" height="818.267" fill="white" transform="translate(0.333496 0.745605)"/>
</clipPath>
</defs>
</svg>
