<svg width="1422" height="85" viewBox="0 0 1422 85" fill="none" xmlns="http://www.w3.org/2000/svg">
<path d="M93.6581 50.6987C93.6581 57.8859 87.6544 63.7123 80.2485 63.7123C72.8426 63.7123 66.839 57.8859 66.839 50.6987C66.839 43.5115 72.8426 37.6852 80.2485 37.6852C87.6544 37.6852 93.6581 43.5115 93.6581 50.6987Z" fill="#FF8A8A"/>
<path d="M263.066 24.5377C263.066 31.4485 257.062 37.0508 249.656 37.0508C242.25 37.0508 236.247 31.4485 236.247 24.5377C236.247 17.627 242.25 12.0247 249.656 12.0247C257.062 12.0247 263.066 17.627 263.066 24.5377Z" fill="#FF8A8A"/>
<path d="M153.418 52.2473C154.735 60.4819 148.924 68.1933 140.439 69.4711C131.954 70.749 124.007 65.1095 122.691 56.8749C121.374 48.6403 127.185 40.9289 135.67 39.651C144.155 38.3731 152.102 44.0127 153.418 52.2473Z" fill="#95F499" fill-opacity="0.85"/>
<path d="M320.017 17.6593C321.334 25.8939 315.523 33.6053 307.037 34.8832C298.552 36.1611 290.606 30.5215 289.289 22.2869C287.973 14.0523 293.784 6.34094 302.269 5.06307C310.754 3.78519 318.7 9.42473 320.017 17.6593Z" fill="#95F499" fill-opacity="0.85"/>
<path d="M58.2165 19.7094C58.2165 27.7259 51.7511 34.2245 43.7755 34.2245C35.7999 34.2245 29.3344 27.7259 29.3344 19.7094C29.3344 11.693 35.7999 5.19431 43.7755 5.19431C51.7511 5.19431 58.2165 11.693 58.2165 19.7094Z" fill="#FEDE8B"/>
<path d="M204.27 29.5429C204.27 37.5594 197.574 44.0581 189.313 44.0581C181.053 44.0581 174.357 37.5594 174.357 29.5429C174.357 21.5265 181.053 15.0278 189.313 15.0278C197.574 15.0278 204.27 21.5265 204.27 29.5429Z" fill="#FEDE8B"/>
<path d="M448.737 19.3165C448.737 24.2923 444.58 28.3259 439.453 28.3259C434.326 28.3259 430.17 24.2923 430.17 19.3165C430.17 14.3408 434.326 10.3071 439.453 10.3071C444.58 10.3071 448.737 14.3408 448.737 19.3165Z" fill="#FEDE8B"/>
<path d="M1001.62 66.2057C1001.62 71.1814 997.467 75.2151 992.34 75.2151C987.213 75.2151 983.056 71.1814 983.056 66.2057C983.056 61.23 987.213 57.1963 992.34 57.1963C997.467 57.1963 1001.62 61.23 1001.62 66.2057Z" fill="#FEDE8B"/>
<path d="M29.6307 54.1959C29.6307 61.9359 23.1652 68.2105 15.1896 68.2105C7.21402 68.2105 0.748535 61.9359 0.748535 54.1959C0.748535 46.4558 7.21402 40.1813 15.1896 40.1813C23.1652 40.1813 29.6307 46.4558 29.6307 54.1959Z" fill="#FFBB8A" fill-opacity="0.88"/>
<path d="M117.361 14.5273C117.361 22.5438 110.434 29.0424 101.889 29.0424C93.3434 29.0424 86.4161 22.5438 86.4161 14.5273C86.4161 6.51084 93.3434 0.012207 101.889 0.012207C110.434 0.012207 117.361 6.51084 117.361 14.5273Z" fill="#8AD5FF"/>
<path d="M294.011 54.569C294.011 62.5855 287.315 69.0841 279.054 69.0841C270.794 69.0841 264.097 62.5855 264.097 54.569C264.097 46.5525 270.794 40.0539 279.054 40.0539C287.315 40.0539 294.011 46.5525 294.011 54.569Z" fill="#8AD5FF"/>
<path d="M577.27 29.5041C577.493 22.3995 583.608 16.8152 590.929 17.0312C598.25 17.2472 604.004 23.1817 603.781 30.2862C603.559 37.3908 597.444 42.9752 590.123 42.7592C582.802 42.5432 577.048 36.6087 577.27 29.5041Z" fill="#FF8A8A"/>
<path d="M398.344 49.9771C398.567 42.8725 404.682 37.2882 412.003 37.5042C419.323 37.7201 425.078 43.6546 424.855 50.7592C424.633 57.8638 418.517 63.4482 411.197 63.2322C403.876 63.0162 398.122 57.0817 398.344 49.9771Z" fill="#FF8A8A"/>
<path d="M508.614 25.4375C507.555 17.1679 513.605 9.63144 522.127 8.60437C530.648 7.57731 538.414 13.4486 539.472 21.7182C540.53 29.9878 534.48 37.5243 525.959 38.5513C517.438 39.5784 509.672 33.7072 508.614 25.4375Z" fill="#95F499" fill-opacity="0.85"/>
<path d="M341.009 55.0967C339.951 46.827 346.001 39.2906 354.522 38.2635C363.043 37.2364 370.809 43.1077 371.867 51.3773C372.926 59.6469 366.876 67.1834 358.354 68.2105C349.833 69.2375 342.067 63.3663 341.009 55.0967Z" fill="#95F499" fill-opacity="0.85"/>
<path d="M611.963 60.3031C612.213 52.3105 619.092 46.0281 627.328 46.2711C635.564 46.5141 642.038 53.1904 641.787 61.183C641.537 69.1757 634.657 75.4581 626.422 75.2151C618.186 74.9721 611.712 68.2958 611.963 60.3031Z" fill="#FEDE8B"/>
<path d="M457.316 46.8885C457.567 38.8958 464.446 32.6134 472.682 32.8564C480.918 33.0994 487.391 39.7757 487.141 47.7684C486.891 55.761 480.011 62.0434 471.775 61.8004C463.539 61.5574 457.066 54.8811 457.316 46.8885Z" fill="#FEDE8B"/>
<path d="M653.452 32.9588C653.695 25.1881 660.383 19.0803 668.39 19.3165C676.398 19.5527 682.691 26.0436 682.448 33.8142C682.204 41.5849 675.516 47.6927 667.509 47.4565C659.502 47.2203 653.208 40.7294 653.452 32.9588Z" fill="#FFBB8A" fill-opacity="0.88"/>
<path d="M548.823 64.0735C549.073 56.0809 556.138 49.804 564.603 50.0537C573.068 50.3034 579.727 56.9852 579.476 64.9779C579.226 72.9705 572.161 79.2474 563.696 78.9977C555.232 78.748 548.573 72.0662 548.823 64.0735Z" fill="#8AD5FF"/>
<path d="M702.94 50.5217C703.191 42.529 710.256 36.2522 718.721 36.5019C727.185 36.7516 733.844 43.4334 733.594 51.4261C733.343 59.4187 726.278 65.6956 717.814 65.4459C709.349 65.1962 702.69 58.5144 702.94 50.5217Z" fill="#8AD5FF"/>
<path d="M367.794 19.3004C368.045 11.3077 375.11 5.03081 383.574 5.28054C392.039 5.53027 398.698 12.212 398.447 20.2047C398.197 28.1974 391.132 34.4743 382.667 34.2245C374.203 33.9748 367.544 27.293 367.794 19.3004Z" fill="#8AD5FF"/>
<path d="M858.244 57.0716C858.244 64.2588 852.241 70.0852 844.835 70.0852C837.429 70.0852 831.425 64.2588 831.425 57.0716C831.425 49.8844 837.429 44.0581 844.835 44.0581C852.241 44.0581 858.244 49.8844 858.244 57.0716Z" fill="#FF8A8A"/>
<path d="M1036.69 31.545C1036.69 38.4558 1030.69 44.0581 1023.29 44.0581C1015.88 44.0581 1009.88 38.4558 1009.88 31.545C1009.88 24.6343 1015.88 19.032 1023.29 19.032C1030.69 19.032 1036.69 24.6343 1036.69 31.545Z" fill="#FF8A8A"/>
<path d="M927.047 59.2546C928.364 67.4892 922.553 75.2006 914.068 76.4784C905.582 77.7563 897.636 72.1168 896.32 63.8822C895.003 55.6476 900.814 47.9362 909.299 46.6583C917.784 45.3804 925.73 51.02 927.047 59.2546Z" fill="#95F499" fill-opacity="0.85"/>
<path d="M1093.65 24.6666C1094.96 32.9012 1089.15 40.6126 1080.67 41.8905C1072.18 43.1684 1064.23 37.5288 1062.92 29.2942C1061.6 21.0596 1067.41 13.3482 1075.9 12.0704C1084.38 10.7925 1092.33 16.432 1093.65 24.6666Z" fill="#95F499" fill-opacity="0.85"/>
<path d="M822.142 27.5409C822.142 35.5573 815.676 42.056 807.701 42.056C799.725 42.056 793.26 35.5573 793.26 27.5409C793.26 19.5244 799.725 13.0258 807.701 13.0258C815.676 13.0258 822.142 19.5244 822.142 27.5409Z" fill="#FEDE8B"/>
<path d="M977.899 36.5502C977.899 44.5667 971.203 51.0654 962.942 51.0654C954.682 51.0654 947.985 44.5667 947.985 36.5502C947.985 28.5338 954.682 22.0351 962.942 22.0351C971.203 22.0351 977.899 28.5338 977.899 36.5502Z" fill="#FEDE8B"/>
<path d="M781.913 56.0706C781.913 63.8106 775.448 70.0852 767.472 70.0852C759.496 70.0852 753.031 63.8106 753.031 56.0706C753.031 48.3305 759.496 42.056 767.472 42.056C775.448 42.056 781.913 48.3305 781.913 56.0706Z" fill="#FFBB8A" fill-opacity="0.88"/>
<path d="M886.095 21.5346C886.095 29.5511 879.168 36.0497 870.622 36.0497C862.077 36.0497 855.15 29.5511 855.15 21.5346C855.15 13.5181 862.077 7.0195 870.622 7.0195C879.168 7.0195 886.095 13.5181 886.095 21.5346Z" fill="#8AD5FF"/>
<path d="M1067.64 61.5763C1067.64 69.5928 1060.94 76.0914 1052.68 76.0914C1044.42 76.0914 1037.73 69.5928 1037.73 61.5763C1037.73 53.5598 1044.42 47.0612 1052.68 47.0612C1060.94 47.0612 1067.64 53.5598 1067.64 61.5763Z" fill="#8AD5FF"/>
<path d="M1337.32 37.2935C1337.55 30.1889 1343.66 24.6046 1350.98 24.8206C1358.3 25.0366 1364.06 30.9711 1363.84 38.0757C1363.61 45.1803 1357.5 50.7646 1350.18 50.5486C1342.86 50.3326 1337.1 44.3981 1337.32 37.2935Z" fill="#FF8A8A"/>
<path d="M1171.97 56.9844C1172.2 49.8798 1178.31 44.2955 1185.63 44.5115C1192.95 44.7274 1198.71 50.6619 1198.48 57.7665C1198.26 64.8711 1192.15 70.4554 1184.83 70.2395C1177.5 70.0235 1171.75 64.089 1171.97 56.9844Z" fill="#FF8A8A"/>
<path d="M1282.24 32.4448C1281.18 24.1752 1287.23 16.6387 1295.76 15.6117C1304.28 14.5846 1312.04 20.4559 1313.1 28.7255C1314.16 36.9951 1308.11 44.5316 1299.59 45.5586C1291.07 46.5857 1283.3 40.7145 1282.24 32.4448Z" fill="#95F499" fill-opacity="0.85"/>
<path d="M1114.64 62.1039C1113.58 53.8343 1119.63 46.2978 1128.15 45.2708C1136.67 44.2437 1144.44 50.115 1145.5 58.3846C1146.55 66.6542 1140.5 74.1907 1131.98 75.2178C1123.46 76.2448 1115.7 70.3736 1114.64 62.1039Z" fill="#95F499" fill-opacity="0.85"/>
<path d="M1368.42 67.3104C1368.67 59.3178 1375.55 53.0354 1383.79 53.2784C1392.03 53.5214 1398.5 60.1977 1398.25 68.1903C1398 76.183 1391.12 82.4654 1382.88 82.2224C1374.65 81.9794 1368.17 75.3031 1368.42 67.3104Z" fill="#FEDE8B"/>
<path d="M1230.94 53.8958C1231.2 45.9031 1238.07 39.6207 1246.31 39.8637C1254.55 40.1067 1261.02 46.783 1260.77 54.7757C1260.52 62.7683 1253.64 69.0507 1245.4 68.8077C1237.17 68.5647 1230.69 61.8884 1230.94 53.8958Z" fill="#FEDE8B"/>
<path d="M1392.25 32.4448C1392.49 24.6742 1399.18 18.5663 1407.19 18.8026C1415.19 19.0388 1421.49 25.5296 1421.24 33.3003C1421 41.0709 1414.31 47.1788 1406.31 46.9426C1398.3 46.7063 1392.01 40.2155 1392.25 32.4448Z" fill="#FFBB8A" fill-opacity="0.88"/>
<path d="M1309.1 69.3351C1309.35 61.3424 1316.41 55.0656 1324.88 55.3153C1333.34 55.565 1340 62.2468 1339.75 70.2395C1339.5 78.2321 1332.43 84.509 1323.97 84.2593C1315.5 84.0096 1308.84 77.3278 1309.1 69.3351Z" fill="#8AD5FF"/>
<path d="M1141.42 26.3076C1141.67 18.315 1148.74 12.0381 1157.2 12.2878C1165.67 12.5376 1172.33 19.2193 1172.08 27.212C1171.83 35.2047 1164.76 41.4816 1156.3 41.2318C1147.83 40.9821 1141.17 34.3003 1141.42 26.3076Z" fill="#8AD5FF"/>
</svg>
