<svg width="1440" height="204" viewBox="0 0 1440 204" fill="none" xmlns="http://www.w3.org/2000/svg">
<rect y="0.745605" width="1440" height="78" fill="#FFD702"/>
<path d="M848 78.7456C848 85.3177 847.482 91.8996 846.44 98.4299C843.334 117.91 835.661 136.379 824.05 152.325C812.438 168.272 797.217 181.244 779.631 190.181C762.046 199.118 742.595 203.766 722.868 203.746C703.142 203.725 683.701 199.036 666.134 190.062C648.567 181.087 633.373 168.083 621.795 152.112C610.217 136.141 602.584 117.656 599.518 98.1697C598.505 91.7244 598 85.2301 598 78.7456L605.5 78.7456C605.5 84.841 605.974 90.9457 606.927 97.0042C609.809 115.322 616.984 132.697 627.868 147.71C638.751 162.723 653.033 174.947 669.546 183.383C686.059 191.818 704.333 196.226 722.876 196.246C741.419 196.265 759.703 191.896 776.234 183.495C792.764 175.094 807.072 162.9 817.987 147.91C828.902 132.921 836.114 115.56 839.034 97.2489C840.013 91.1103 840.5 84.9233 840.5 78.7456L848 78.7456Z" fill="#FCBC16"/>
<path d="M820.678 0.745852C830.029 12.4554 837.255 25.8225 841.925 40.2519C845.975 52.7642 848 65.7553 848 78.7458L840.5 78.7457C814.103 78.7162 598 78.7461 598 78.7461C598 65.6622 600.054 52.5786 604.161 39.9855C608.835 25.6565 616.03 12.3822 625.322 0.74585L635.124 0.74585C624.469 12.75 616.325 26.8799 611.292 42.3111C607.431 54.1486 605.5 66.447 605.5 78.7458L840.5 78.7457C840.5 66.5346 838.597 54.3231 834.79 42.5615C829.764 27.0346 821.59 12.8163 810.876 0.745852L820.678 0.745852Z" fill="white"/>
</svg>
